<svg xmlns="http://www.w3.org/2000/svg" version="1.1" xmlns:xlink="http://www.w3.org/1999/xlink" xmlns:svgjs="http://svgjs.dev/svgjs" width="1440" height="560" preserveAspectRatio="none" viewBox="0 0 1440 560"><g mask="url(&quot;#SvgjsMask1000&quot;)" fill="none"><rect width="1440" height="560" x="0" y="0" fill="#0e2a47"></rect><path d="M-48.04 341.47L-48.04 341.47" stroke="#132e65" stroke-width="1.5"></path><path d="M-48.04 341.47L44.58 361.52" stroke="#132e65" stroke-width="1.5"></path><path d="M-48.04 341.47L-66.16 510.95" stroke="#132e65" stroke-width="1.5"></path><path d="M-48.04 341.47L78.04 502.67" stroke="#132e65" stroke-width="1.5"></path><path d="M-48.04 341.47L196.55 351.22" stroke="#132e65" stroke-width="1.5"></path><path d="M-48.04 341.47L200.13 508.82" stroke="#132e65" stroke-width="1.5"></path><path d="M-66.16 510.95L-66.16 510.95" stroke="#132e65" stroke-width="1.5"></path><path d="M-66.16 510.95L78.04 502.67" stroke="#132e65" stroke-width="1.5"></path><path d="M-66.16 510.95L44.58 361.52" stroke="#132e65" stroke-width="1.5"></path><path d="M44.58 361.52L44.58 361.52" stroke="#132e65" stroke-width="1.5"></path><path d="M44.58 361.52L78.04 502.67" stroke="#132e65" stroke-width="1.5"></path><path d="M44.58 361.52L196.55 351.22" stroke="#132e65" stroke-width="1.5"></path><path d="M78.04 502.67L78.04 502.67" stroke="#132e65" stroke-width="1.5"></path><path d="M78.04 502.67L200.13 508.82" stroke="#132e65" stroke-width="1.5"></path><path d="M78.04 502.67L89.56 678.6" stroke="#132e65" stroke-width="1.5"></path><path d="M78.04 502.67L196.55 351.22" stroke="#132e65" stroke-width="1.5"></path><path d="M89.56 678.6L89.56 678.6" stroke="#132e65" stroke-width="1.5"></path><path d="M89.56 678.6L255.14 677.32" stroke="#132e65" stroke-width="1.5"></path><path d="M89.56 678.6L200.13 508.82" stroke="#132e65" stroke-width="1.5"></path><path d="M89.56 678.6L-66.16 510.95" stroke="#132e65" stroke-width="1.5"></path><path d="M89.56 678.6L44.58 361.52" stroke="#132e65" stroke-width="1.5"></path><path d="M89.56 678.6L381.14 523.14" stroke="#132e65" stroke-width="1.5"></path><path d="M196.55 351.22L196.55 351.22" stroke="#132e65" stroke-width="1.5"></path><path d="M196.55 351.22L200.13 508.82" stroke="#132e65" stroke-width="1.5"></path><path d="M196.55 351.22L370.26 394.93" stroke="#132e65" stroke-width="1.5"></path><path d="M200.13 508.82L200.13 508.82" stroke="#132e65" stroke-width="1.5"></path><path d="M200.13 508.82L255.14 677.32" stroke="#132e65" stroke-width="1.5"></path><path d="M200.13 508.82L381.14 523.14" stroke="#132e65" stroke-width="1.5"></path><path d="M255.14 677.32L255.14 677.32" stroke="#132e65" stroke-width="1.5"></path><path d="M255.14 677.32L381.14 523.14" stroke="#132e65" stroke-width="1.5"></path><path d="M255.14 677.32L78.04 502.67" stroke="#132e65" stroke-width="1.5"></path><path d="M255.14 677.32L550.12 701.06" stroke="#132e65" stroke-width="1.5"></path><path d="M370.26 394.93L370.26 394.93" stroke="#132e65" stroke-width="1.5"></path><path d="M370.26 394.93L381.14 523.14" stroke="#132e65" stroke-width="1.5"></path><path d="M370.26 394.93L514.38 356.28" stroke="#132e65" stroke-width="1.5"></path><path d="M370.26 394.93L527.18 494.08" stroke="#132e65" stroke-width="1.5"></path><path d="M381.14 523.14L381.14 523.14" stroke="#132e65" stroke-width="1.5"></path><path d="M381.14 523.14L527.18 494.08" stroke="#132e65" stroke-width="1.5"></path><path d="M514.38 356.28L514.38 356.28" stroke="#132e65" stroke-width="1.5"></path><path d="M514.38 356.28L527.18 494.08" stroke="#132e65" stroke-width="1.5"></path><path d="M514.38 356.28L643.34 499.51" stroke="#132e65" stroke-width="1.5"></path><path d="M514.38 356.28L704.77 405.32" stroke="#132e65" stroke-width="1.5"></path><path d="M527.18 494.08L527.18 494.08" stroke="#132e65" stroke-width="1.5"></path><path d="M527.18 494.08L643.34 499.51" stroke="#132e65" stroke-width="1.5"></path><path d="M527.18 494.08L704.77 405.32" stroke="#132e65" stroke-width="1.5"></path><path d="M550.12 701.06L550.12 701.06" stroke="#132e65" stroke-width="1.5"></path><path d="M550.12 701.06L663.14 704.63" stroke="#132e65" stroke-width="1.5"></path><path d="M550.12 701.06L527.18 494.08" stroke="#132e65" stroke-width="1.5"></path><path d="M550.12 701.06L643.34 499.51" stroke="#132e65" stroke-width="1.5"></path><path d="M550.12 701.06L381.14 523.14" stroke="#132e65" stroke-width="1.5"></path><path d="M704.77 405.32L704.77 405.32" stroke="#132e65" stroke-width="1.5"></path><path d="M704.77 405.32L643.34 499.51" stroke="#132e65" stroke-width="1.5"></path><path d="M704.77 405.32L861.29 359.39" stroke="#132e65" stroke-width="1.5"></path><path d="M704.77 405.32L850.87 494.47" stroke="#132e65" stroke-width="1.5"></path><path d="M643.34 499.51L643.34 499.51" stroke="#132e65" stroke-width="1.5"></path><path d="M663.14 704.63L663.14 704.63" stroke="#132e65" stroke-width="1.5"></path><path d="M663.14 704.63L852.89 667.68" stroke="#132e65" stroke-width="1.5"></path><path d="M663.14 704.63L643.34 499.51" stroke="#132e65" stroke-width="1.5"></path><path d="M663.14 704.63L527.18 494.08" stroke="#132e65" stroke-width="1.5"></path><path d="M861.29 359.39L861.29 359.39" stroke="#132e65" stroke-width="1.5"></path><path d="M861.29 359.39L967.24 373.04" stroke="#132e65" stroke-width="1.5"></path><path d="M861.29 359.39L850.87 494.47" stroke="#132e65" stroke-width="1.5"></path><path d="M850.87 494.47L850.87 494.47" stroke="#132e65" stroke-width="1.5"></path><path d="M850.87 494.47L988 505.79" stroke="#132e65" stroke-width="1.5"></path><path d="M850.87 494.47L967.24 373.04" stroke="#132e65" stroke-width="1.5"></path><path d="M850.87 494.47L852.89 667.68" stroke="#132e65" stroke-width="1.5"></path><path d="M850.87 494.47L643.34 499.51" stroke="#132e65" stroke-width="1.5"></path><path d="M852.89 667.68L852.89 667.68" stroke="#132e65" stroke-width="1.5"></path><path d="M852.89 667.68L951.7 691.58" stroke="#132e65" stroke-width="1.5"></path><path d="M852.89 667.68L988 505.79" stroke="#132e65" stroke-width="1.5"></path><path d="M852.89 667.68L1116.11 665.43" stroke="#132e65" stroke-width="1.5"></path><path d="M979.61 -85.11L979.61 -85.11" stroke="#132e65" stroke-width="1.5"></path><path d="M979.61 -85.11L976.74 87.58" stroke="#132e65" stroke-width="1.5"></path><path d="M979.61 -85.11L1151.58 72.39" stroke="#132e65" stroke-width="1.5"></path><path d="M979.61 -85.11L1247.24 -97.69" stroke="#132e65" stroke-width="1.5"></path><path d="M979.61 -85.11L975.27 193.38" stroke="#132e65" stroke-width="1.5"></path><path d="M976.74 87.58L976.74 87.58" stroke="#132e65" stroke-width="1.5"></path><path d="M976.74 87.58L975.27 193.38" stroke="#132e65" stroke-width="1.5"></path><path d="M976.74 87.58L1151.58 72.39" stroke="#132e65" stroke-width="1.5"></path><path d="M976.74 87.58L1153.77 240.19" stroke="#132e65" stroke-width="1.5"></path><path d="M975.27 193.38L975.27 193.38" stroke="#132e65" stroke-width="1.5"></path><path d="M975.27 193.38L967.24 373.04" stroke="#132e65" stroke-width="1.5"></path><path d="M975.27 193.38L1153.77 240.19" stroke="#132e65" stroke-width="1.5"></path><path d="M975.27 193.38L861.29 359.39" stroke="#132e65" stroke-width="1.5"></path><path d="M967.24 373.04L967.24 373.04" stroke="#132e65" stroke-width="1.5"></path><path d="M967.24 373.04L988 505.79" stroke="#132e65" stroke-width="1.5"></path><path d="M967.24 373.04L1101.47 401.59" stroke="#132e65" stroke-width="1.5"></path><path d="M988 505.79L988 505.79" stroke="#132e65" stroke-width="1.5"></path><path d="M988 505.79L1109.79 515.89" stroke="#132e65" stroke-width="1.5"></path><path d="M988 505.79L1101.47 401.59" stroke="#132e65" stroke-width="1.5"></path><path d="M951.7 691.58L951.7 691.58" stroke="#132e65" stroke-width="1.5"></path><path d="M951.7 691.58L1116.11 665.43" stroke="#132e65" stroke-width="1.5"></path><path d="M1151.58 72.39L1151.58 72.39" stroke="#132e65" stroke-width="1.5"></path><path d="M1151.58 72.39L1309.74 82.56" stroke="#132e65" stroke-width="1.5"></path><path d="M1151.58 72.39L1153.77 240.19" stroke="#132e65" stroke-width="1.5"></path><path d="M1153.77 240.19L1153.77 240.19" stroke="#132e65" stroke-width="1.5"></path><path d="M1153.77 240.19L1263 214.65" stroke="#132e65" stroke-width="1.5"></path><path d="M1153.77 240.19L1101.47 401.59" stroke="#132e65" stroke-width="1.5"></path><path d="M1153.77 240.19L1309.74 82.56" stroke="#132e65" stroke-width="1.5"></path><path d="M1101.47 401.59L1101.47 401.59" stroke="#132e65" stroke-width="1.5"></path><path d="M1101.47 401.59L1109.79 515.89" stroke="#132e65" stroke-width="1.5"></path><path d="M1109.79 515.89L1109.79 515.89" stroke="#132e65" stroke-width="1.5"></path><path d="M1109.79 515.89L1252.45 525.69" stroke="#132e65" stroke-width="1.5"></path><path d="M1109.79 515.89L1116.11 665.43" stroke="#132e65" stroke-width="1.5"></path><path d="M1116.11 665.43L1116.11 665.43" stroke="#132e65" stroke-width="1.5"></path><path d="M1116.11 665.43L1286.1 646.86" stroke="#132e65" stroke-width="1.5"></path><path d="M1247.24 -97.69L1247.24 -97.69" stroke="#132e65" stroke-width="1.5"></path><path d="M1247.24 -97.69L1309.74 82.56" stroke="#132e65" stroke-width="1.5"></path><path d="M1247.24 -97.69L1151.58 72.39" stroke="#132e65" stroke-width="1.5"></path><path d="M1247.24 -97.69L1461.1 -42.43" stroke="#132e65" stroke-width="1.5"></path><path d="M1247.24 -97.69L1411.33 87.04" stroke="#132e65" stroke-width="1.5"></path><path d="M1309.74 82.56L1309.74 82.56" stroke="#132e65" stroke-width="1.5"></path><path d="M1309.74 82.56L1411.33 87.04" stroke="#132e65" stroke-width="1.5"></path><path d="M1309.74 82.56L1263 214.65" stroke="#132e65" stroke-width="1.5"></path><path d="M1263 214.65L1263 214.65" stroke="#132e65" stroke-width="1.5"></path><path d="M1252.45 525.69L1252.45 525.69" stroke="#132e65" stroke-width="1.5"></path><path d="M1252.45 525.69L1286.1 646.86" stroke="#132e65" stroke-width="1.5"></path><path d="M1252.45 525.69L1429.57 512.38" stroke="#132e65" stroke-width="1.5"></path><path d="M1252.45 525.69L1116.11 665.43" stroke="#132e65" stroke-width="1.5"></path><path d="M1286.1 646.86L1286.1 646.86" stroke="#132e65" stroke-width="1.5"></path><path d="M1286.1 646.86L1427.1 683.76" stroke="#132e65" stroke-width="1.5"></path><path d="M1461.1 -42.43L1461.1 -42.43" stroke="#132e65" stroke-width="1.5"></path><path d="M1461.1 -42.43L1411.33 87.04" stroke="#132e65" stroke-width="1.5"></path><path d="M1461.1 -42.43L1598.89 91.04" stroke="#132e65" stroke-width="1.5"></path><path d="M1461.1 -42.43L1309.74 82.56" stroke="#132e65" stroke-width="1.5"></path><path d="M1461.1 -42.43L1540.74 253.4" stroke="#132e65" stroke-width="1.5"></path><path d="M1411.33 87.04L1411.33 87.04" stroke="#132e65" stroke-width="1.5"></path><path d="M1411.33 87.04L1598.89 91.04" stroke="#132e65" stroke-width="1.5"></path><path d="M1411.33 87.04L1263 214.65" stroke="#132e65" stroke-width="1.5"></path><path d="M1411.33 87.04L1540.74 253.4" stroke="#132e65" stroke-width="1.5"></path><path d="M1459.66 356.61L1459.66 356.61" stroke="#132e65" stroke-width="1.5"></path><path d="M1459.66 356.61L1540.74 253.4" stroke="#132e65" stroke-width="1.5"></path><path d="M1429.57 512.38L1429.57 512.38" stroke="#132e65" stroke-width="1.5"></path><path d="M1429.57 512.38L1571.93 502.41" stroke="#132e65" stroke-width="1.5"></path><path d="M1429.57 512.38L1459.66 356.61" stroke="#132e65" stroke-width="1.5"></path><path d="M1429.57 512.38L1427.1 683.76" stroke="#132e65" stroke-width="1.5"></path><path d="M1429.57 512.38L1286.1 646.86" stroke="#132e65" stroke-width="1.5"></path><path d="M1429.57 512.38L1595.16 404.16" stroke="#132e65" stroke-width="1.5"></path><path d="M1427.1 683.76L1427.1 683.76" stroke="#132e65" stroke-width="1.5"></path><path d="M1427.1 683.76L1579.16 663.64" stroke="#132e65" stroke-width="1.5"></path><path d="M1598.89 91.04L1598.89 91.04" stroke="#132e65" stroke-width="1.5"></path><path d="M1598.89 91.04L1540.74 253.4" stroke="#132e65" stroke-width="1.5"></path><path d="M1540.74 253.4L1540.74 253.4" stroke="#132e65" stroke-width="1.5"></path><path d="M1540.74 253.4L1595.16 404.16" stroke="#132e65" stroke-width="1.5"></path><path d="M1595.16 404.16L1595.16 404.16" stroke="#132e65" stroke-width="1.5"></path><path d="M1595.16 404.16L1571.93 502.41" stroke="#132e65" stroke-width="1.5"></path><path d="M1595.16 404.16L1459.66 356.61" stroke="#132e65" stroke-width="1.5"></path><path d="M1571.93 502.41L1571.93 502.41" stroke="#132e65" stroke-width="1.5"></path><path d="M1571.93 502.41L1579.16 663.64" stroke="#132e65" stroke-width="1.5"></path><path d="M1571.93 502.41L1459.66 356.61" stroke="#132e65" stroke-width="1.5"></path><path d="M1571.93 502.41L1427.1 683.76" stroke="#132e65" stroke-width="1.5"></path><path d="M1571.93 502.41L1540.74 253.4" stroke="#132e65" stroke-width="1.5"></path><path d="M1579.16 663.64L1579.16 663.64" stroke="#132e65" stroke-width="1.5"></path><path d="M1579.16 663.64L1429.57 512.38" stroke="#132e65" stroke-width="1.5"></path><circle r="5" cx="-48.04" cy="341.47" fill="#132e65"></circle><circle r="5" cx="-66.16" cy="510.95" fill="#132e65"></circle><circle r="5" cx="44.58" cy="361.52" fill="#132e65"></circle><circle r="5" cx="78.04" cy="502.67" fill="#132e65"></circle><circle r="5" cx="89.56" cy="678.6" fill="#132e65"></circle><circle r="5" cx="196.55" cy="351.22" fill="#132e65"></circle><circle r="5" cx="200.13" cy="508.82" fill="#132e65"></circle><circle r="5" cx="255.14" cy="677.32" fill="#132e65"></circle><circle r="5" cx="370.26" cy="394.93" fill="#132e65"></circle><circle r="5" cx="381.14" cy="523.14" fill="#132e65"></circle><circle r="5" cx="514.38" cy="356.28" fill="#132e65"></circle><circle r="5" cx="527.18" cy="494.08" fill="#132e65"></circle><circle r="5" cx="550.12" cy="701.06" fill="#132e65"></circle><circle r="5" cx="704.77" cy="405.32" fill="#132e65"></circle><circle r="5" cx="643.34" cy="499.51" fill="#132e65"></circle><circle r="5" cx="663.14" cy="704.63" fill="#132e65"></circle><circle r="5" cx="861.29" cy="359.39" fill="#132e65"></circle><circle r="5" cx="850.87" cy="494.47" fill="#132e65"></circle><circle r="5" cx="852.89" cy="667.68" fill="#132e65"></circle><circle r="5" cx="979.61" cy="-85.11" fill="#132e65"></circle><circle r="5" cx="976.74" cy="87.58" fill="#132e65"></circle><circle r="5" cx="975.27" cy="193.38" fill="#132e65"></circle><circle r="5" cx="967.24" cy="373.04" fill="#132e65"></circle><circle r="5" cx="988" cy="505.79" fill="#132e65"></circle><circle r="5" cx="951.7" cy="691.58" fill="#132e65"></circle><circle r="5" cx="1151.58" cy="72.39" fill="#132e65"></circle><circle r="5" cx="1153.77" cy="240.19" fill="#132e65"></circle><circle r="5" cx="1101.47" cy="401.59" fill="#132e65"></circle><circle r="5" cx="1109.79" cy="515.89" fill="#132e65"></circle><circle r="5" cx="1116.11" cy="665.43" fill="#132e65"></circle><circle r="5" cx="1247.24" cy="-97.69" fill="#132e65"></circle><circle r="5" cx="1309.74" cy="82.56" fill="#132e65"></circle><circle r="5" cx="1263" cy="214.65" fill="#132e65"></circle><circle r="5" cx="1252.45" cy="525.69" fill="#132e65"></circle><circle r="5" cx="1286.1" cy="646.86" fill="#132e65"></circle><circle r="5" cx="1461.1" cy="-42.43" fill="#132e65"></circle><circle r="5" cx="1411.33" cy="87.04" fill="#132e65"></circle><circle r="5" cx="1459.66" cy="356.61" fill="#132e65"></circle><circle r="5" cx="1429.57" cy="512.38" fill="#132e65"></circle><circle r="5" cx="1427.1" cy="683.76" fill="#132e65"></circle><circle r="5" cx="1598.89" cy="91.04" fill="#132e65"></circle><circle r="5" cx="1540.74" cy="253.4" fill="#132e65"></circle><circle r="5" cx="1595.16" cy="404.16" fill="#132e65"></circle><circle r="5" cx="1571.93" cy="502.41" fill="#132e65"></circle><circle r="5" cx="1579.16" cy="663.64" fill="#132e65"></circle><path d="M98.66 512.55L98.66 512.55" stroke="hsl(228.5, 77.2%, 51.5%)" stroke-width="1.5"></path><path d="M98.66 512.55L204.06 547.2" stroke="hsl(228.5, 77.2%, 51.5%)" stroke-width="1.5"></path><path d="M98.66 512.55L-78.13 501.26" stroke="hsl(228.5, 77.2%, 51.5%)" stroke-width="1.5"></path><path d="M98.66 512.55L112.04 694.38" stroke="hsl(228.5, 77.2%, 51.5%)" stroke-width="1.5"></path><path d="M659.37 402.41L659.37 402.41" stroke="hsl(228.5, 77.2%, 51.5%)" stroke-width="1.5"></path><path d="M659.37 402.41L676.81 504.99" stroke="hsl(228.5, 77.2%, 51.5%)" stroke-width="1.5"></path><path d="M659.37 402.41L804.9 352.03" stroke="hsl(228.5, 77.2%, 51.5%)" stroke-width="1.5"></path><path d="M659.37 402.41L790.65 517.75" stroke="hsl(228.5, 77.2%, 51.5%)" stroke-width="1.5"></path><path d="M659.37 402.41L490.49 559.37" stroke="hsl(228.5, 77.2%, 51.5%)" stroke-width="1.5"></path><path d="M659.37 402.41L678.78 656.95" stroke="hsl(228.5, 77.2%, 51.5%)" stroke-width="1.5"></path><path d="M659.37 402.41L949.62 504.18" stroke="hsl(228.5, 77.2%, 51.5%)" stroke-width="1.5"></path><path d="M949.62 504.18L949.62 504.18" stroke="hsl(228.5, 77.2%, 51.5%)" stroke-width="1.5"></path><path d="M949.62 504.18L977.87 392.37" stroke="hsl(228.5, 77.2%, 51.5%)" stroke-width="1.5"></path><path d="M949.62 504.18L982.62 642.98" stroke="hsl(228.5, 77.2%, 51.5%)" stroke-width="1.5"></path><path d="M949.62 504.18L1092.04 557.02" stroke="hsl(228.5, 77.2%, 51.5%)" stroke-width="1.5"></path><path d="M949.62 504.18L790.65 517.75" stroke="hsl(228.5, 77.2%, 51.5%)" stroke-width="1.5"></path><path d="M949.62 504.18L851.2 650.49" stroke="hsl(228.5, 77.2%, 51.5%)" stroke-width="1.5"></path><path d="M949.62 504.18L1105.1 375.53" stroke="hsl(228.5, 77.2%, 51.5%)" stroke-width="1.5"></path><path d="M1092.04 557.02L1092.04 557.02" stroke="hsl(228.5, 77.2%, 51.5%)" stroke-width="1.5"></path><path d="M1092.04 557.02L982.62 642.98" stroke="hsl(228.5, 77.2%, 51.5%)" stroke-width="1.5"></path><path d="M1092.04 557.02L1105.1 375.53" stroke="hsl(228.5, 77.2%, 51.5%)" stroke-width="1.5"></path><path d="M1092.04 557.02L977.87 392.37" stroke="hsl(228.5, 77.2%, 51.5%)" stroke-width="1.5"></path><path d="M1092.04 557.02L1300.02 524.28" stroke="hsl(228.5, 77.2%, 51.5%)" stroke-width="1.5"></path><path d="M1092.04 557.02L1238.76 391.66" stroke="hsl(228.5, 77.2%, 51.5%)" stroke-width="1.5"></path><path d="M1250.41 96.81L1250.41 96.81" stroke="hsl(228.5, 77.2%, 51.5%)" stroke-width="1.5"></path><path d="M1250.41 96.81L1276.99 229.61" stroke="hsl(228.5, 77.2%, 51.5%)" stroke-width="1.5"></path><path d="M1250.41 96.81L1153.02 215.2" stroke="hsl(228.5, 77.2%, 51.5%)" stroke-width="1.5"></path><path d="M1250.41 96.81L1415.27 38.28" stroke="hsl(228.5, 77.2%, 51.5%)" stroke-width="1.5"></path><path d="M1250.41 96.81L1290.66 -80.42" stroke="hsl(228.5, 77.2%, 51.5%)" stroke-width="1.5"></path><path d="M1250.41 96.81L1457.54 236.76" stroke="hsl(228.5, 77.2%, 51.5%)" stroke-width="1.5"></path><path d="M1300.02 524.28L1300.02 524.28" stroke="hsl(228.5, 77.2%, 51.5%)" stroke-width="1.5"></path><path d="M1300.02 524.28L1406.03 533.82" stroke="hsl(228.5, 77.2%, 51.5%)" stroke-width="1.5"></path><path d="M1300.02 524.28L1307.39 650.96" stroke="hsl(228.5, 77.2%, 51.5%)" stroke-width="1.5"></path><path d="M1300.02 524.28L1238.76 391.66" stroke="hsl(228.5, 77.2%, 51.5%)" stroke-width="1.5"></path><path d="M1307.39 650.96L1307.39 650.96" stroke="hsl(228.5, 77.2%, 51.5%)" stroke-width="1.5"></path><path d="M1307.39 650.96L1391.3 651.04" stroke="hsl(228.5, 77.2%, 51.5%)" stroke-width="1.5"></path><path d="M1307.39 650.96L1406.03 533.82" stroke="hsl(228.5, 77.2%, 51.5%)" stroke-width="1.5"></path><path d="M1307.39 650.96L1092.04 557.02" stroke="hsl(228.5, 77.2%, 51.5%)" stroke-width="1.5"></path><path d="M1307.39 650.96L1238.76 391.66" stroke="hsl(228.5, 77.2%, 51.5%)" stroke-width="1.5"></path><path d="M1406.03 533.82L1406.03 533.82" stroke="hsl(228.5, 77.2%, 51.5%)" stroke-width="1.5"></path><path d="M1406.03 533.82L1391.3 651.04" stroke="hsl(228.5, 77.2%, 51.5%)" stroke-width="1.5"></path><path d="M1550.84 85.47L1550.84 85.47" stroke="hsl(228.5, 77.2%, 51.5%)" stroke-width="1.5"></path><path d="M1550.84 85.47L1607.12 200.85" stroke="hsl(228.5, 77.2%, 51.5%)" stroke-width="1.5"></path><path d="M1550.84 85.47L1415.27 38.28" stroke="hsl(228.5, 77.2%, 51.5%)" stroke-width="1.5"></path><path d="M1550.84 85.47L1603.42 -64.33" stroke="hsl(228.5, 77.2%, 51.5%)" stroke-width="1.5"></path><path d="M1550.84 85.47L1457.54 236.76" stroke="hsl(228.5, 77.2%, 51.5%)" stroke-width="1.5"></path><path d="M1550.84 85.47L1438.33 -107.22" stroke="hsl(228.5, 77.2%, 51.5%)" stroke-width="1.5"></path><path d="M-78.13 501.26L-78.13 501.26" stroke="hsl(228.5, 77.2%, 51.5%)" stroke-width="1.5"></path><path d="M-78.13 501.26L-44.27 644.35" stroke="hsl(228.5, 77.2%, 51.5%)" stroke-width="1.5"></path><path d="M-78.13 501.26L112.04 694.38" stroke="hsl(228.5, 77.2%, 51.5%)" stroke-width="1.5"></path><path d="M-78.13 501.26L204.06 547.2" stroke="hsl(228.5, 77.2%, 51.5%)" stroke-width="1.5"></path><path d="M-44.27 644.35L-44.27 644.35" stroke="hsl(228.5, 77.2%, 51.5%)" stroke-width="1.5"></path><path d="M-44.27 644.35L112.04 694.38" stroke="hsl(228.5, 77.2%, 51.5%)" stroke-width="1.5"></path><path d="M-44.27 644.35L98.66 512.55" stroke="hsl(228.5, 77.2%, 51.5%)" stroke-width="1.5"></path><path d="M112.04 694.38L112.04 694.38" stroke="hsl(228.5, 77.2%, 51.5%)" stroke-width="1.5"></path><path d="M112.04 694.38L244.56 704.16" stroke="hsl(228.5, 77.2%, 51.5%)" stroke-width="1.5"></path><path d="M204.06 547.2L204.06 547.2" stroke="hsl(228.5, 77.2%, 51.5%)" stroke-width="1.5"></path><path d="M204.06 547.2L348.1 532.83" stroke="hsl(228.5, 77.2%, 51.5%)" stroke-width="1.5"></path><path d="M244.56 704.16L244.56 704.16" stroke="hsl(228.5, 77.2%, 51.5%)" stroke-width="1.5"></path><path d="M348.1 532.83L348.1 532.83" stroke="hsl(228.5, 77.2%, 51.5%)" stroke-width="1.5"></path><path d="M348.1 532.83L490.49 559.37" stroke="hsl(228.5, 77.2%, 51.5%)" stroke-width="1.5"></path><path d="M348.1 532.83L392.87 674.45" stroke="hsl(228.5, 77.2%, 51.5%)" stroke-width="1.5"></path><path d="M348.1 532.83L244.56 704.16" stroke="hsl(228.5, 77.2%, 51.5%)" stroke-width="1.5"></path><path d="M348.1 532.83L98.66 512.55" stroke="hsl(228.5, 77.2%, 51.5%)" stroke-width="1.5"></path><path d="M348.1 532.83L550.17 706.02" stroke="hsl(228.5, 77.2%, 51.5%)" stroke-width="1.5"></path><path d="M392.87 674.45L392.87 674.45" stroke="hsl(228.5, 77.2%, 51.5%)" stroke-width="1.5"></path><path d="M392.87 674.45L490.49 559.37" stroke="hsl(228.5, 77.2%, 51.5%)" stroke-width="1.5"></path><path d="M392.87 674.45L244.56 704.16" stroke="hsl(228.5, 77.2%, 51.5%)" stroke-width="1.5"></path><path d="M490.49 559.37L490.49 559.37" stroke="hsl(228.5, 77.2%, 51.5%)" stroke-width="1.5"></path><path d="M490.49 559.37L550.17 706.02" stroke="hsl(228.5, 77.2%, 51.5%)" stroke-width="1.5"></path><path d="M550.17 706.02L550.17 706.02" stroke="hsl(228.5, 77.2%, 51.5%)" stroke-width="1.5"></path><path d="M550.17 706.02L678.78 656.95" stroke="hsl(228.5, 77.2%, 51.5%)" stroke-width="1.5"></path><path d="M550.17 706.02L392.87 674.45" stroke="hsl(228.5, 77.2%, 51.5%)" stroke-width="1.5"></path><path d="M550.17 706.02L676.81 504.99" stroke="hsl(228.5, 77.2%, 51.5%)" stroke-width="1.5"></path><path d="M550.17 706.02L790.65 517.75" stroke="hsl(228.5, 77.2%, 51.5%)" stroke-width="1.5"></path><path d="M676.81 504.99L676.81 504.99" stroke="hsl(228.5, 77.2%, 51.5%)" stroke-width="1.5"></path><path d="M676.81 504.99L790.65 517.75" stroke="hsl(228.5, 77.2%, 51.5%)" stroke-width="1.5"></path><path d="M676.81 504.99L678.78 656.95" stroke="hsl(228.5, 77.2%, 51.5%)" stroke-width="1.5"></path><path d="M676.81 504.99L490.49 559.37" stroke="hsl(228.5, 77.2%, 51.5%)" stroke-width="1.5"></path><path d="M678.78 656.95L678.78 656.95" stroke="hsl(228.5, 77.2%, 51.5%)" stroke-width="1.5"></path><path d="M804.9 352.03L804.9 352.03" stroke="hsl(228.5, 77.2%, 51.5%)" stroke-width="1.5"></path><path d="M804.9 352.03L790.65 517.75" stroke="hsl(228.5, 77.2%, 51.5%)" stroke-width="1.5"></path><path d="M790.65 517.75L790.65 517.75" stroke="hsl(228.5, 77.2%, 51.5%)" stroke-width="1.5"></path><path d="M790.65 517.75L851.2 650.49" stroke="hsl(228.5, 77.2%, 51.5%)" stroke-width="1.5"></path><path d="M851.2 650.49L851.2 650.49" stroke="hsl(228.5, 77.2%, 51.5%)" stroke-width="1.5"></path><path d="M851.2 650.49L982.62 642.98" stroke="hsl(228.5, 77.2%, 51.5%)" stroke-width="1.5"></path><path d="M851.2 650.49L678.78 656.95" stroke="hsl(228.5, 77.2%, 51.5%)" stroke-width="1.5"></path><path d="M977.87 392.37L977.87 392.37" stroke="hsl(228.5, 77.2%, 51.5%)" stroke-width="1.5"></path><path d="M977.87 392.37L1105.1 375.53" stroke="hsl(228.5, 77.2%, 51.5%)" stroke-width="1.5"></path><path d="M977.87 392.37L804.9 352.03" stroke="hsl(228.5, 77.2%, 51.5%)" stroke-width="1.5"></path><path d="M977.87 392.37L790.65 517.75" stroke="hsl(228.5, 77.2%, 51.5%)" stroke-width="1.5"></path><path d="M982.62 642.98L982.62 642.98" stroke="hsl(228.5, 77.2%, 51.5%)" stroke-width="1.5"></path><path d="M982.62 642.98L790.65 517.75" stroke="hsl(228.5, 77.2%, 51.5%)" stroke-width="1.5"></path><path d="M982.62 642.98L977.87 392.37" stroke="hsl(228.5, 77.2%, 51.5%)" stroke-width="1.5"></path><path d="M982.62 642.98L1105.1 375.53" stroke="hsl(228.5, 77.2%, 51.5%)" stroke-width="1.5"></path><path d="M1153.02 215.2L1153.02 215.2" stroke="hsl(228.5, 77.2%, 51.5%)" stroke-width="1.5"></path><path d="M1153.02 215.2L1276.99 229.61" stroke="hsl(228.5, 77.2%, 51.5%)" stroke-width="1.5"></path><path d="M1105.1 375.53L1105.1 375.53" stroke="hsl(228.5, 77.2%, 51.5%)" stroke-width="1.5"></path><path d="M1105.1 375.53L1238.76 391.66" stroke="hsl(228.5, 77.2%, 51.5%)" stroke-width="1.5"></path><path d="M1290.66 -80.42L1290.66 -80.42" stroke="hsl(228.5, 77.2%, 51.5%)" stroke-width="1.5"></path><path d="M1290.66 -80.42L1438.33 -107.22" stroke="hsl(228.5, 77.2%, 51.5%)" stroke-width="1.5"></path><path d="M1290.66 -80.42L1415.27 38.28" stroke="hsl(228.5, 77.2%, 51.5%)" stroke-width="1.5"></path><path d="M1276.99 229.61L1276.99 229.61" stroke="hsl(228.5, 77.2%, 51.5%)" stroke-width="1.5"></path><path d="M1276.99 229.61L1238.76 391.66" stroke="hsl(228.5, 77.2%, 51.5%)" stroke-width="1.5"></path><path d="M1276.99 229.61L1402.19 344.71" stroke="hsl(228.5, 77.2%, 51.5%)" stroke-width="1.5"></path><path d="M1238.76 391.66L1238.76 391.66" stroke="hsl(228.5, 77.2%, 51.5%)" stroke-width="1.5"></path><path d="M1438.33 -107.22L1438.33 -107.22" stroke="hsl(228.5, 77.2%, 51.5%)" stroke-width="1.5"></path><path d="M1438.33 -107.22L1415.27 38.28" stroke="hsl(228.5, 77.2%, 51.5%)" stroke-width="1.5"></path><path d="M1438.33 -107.22L1603.42 -64.33" stroke="hsl(228.5, 77.2%, 51.5%)" stroke-width="1.5"></path><path d="M1438.33 -107.22L1250.41 96.81" stroke="hsl(228.5, 77.2%, 51.5%)" stroke-width="1.5"></path><path d="M1415.27 38.28L1415.27 38.28" stroke="hsl(228.5, 77.2%, 51.5%)" stroke-width="1.5"></path><path d="M1415.27 38.28L1457.54 236.76" stroke="hsl(228.5, 77.2%, 51.5%)" stroke-width="1.5"></path><path d="M1457.54 236.76L1457.54 236.76" stroke="hsl(228.5, 77.2%, 51.5%)" stroke-width="1.5"></path><path d="M1457.54 236.76L1402.19 344.71" stroke="hsl(228.5, 77.2%, 51.5%)" stroke-width="1.5"></path><path d="M1457.54 236.76L1607.12 200.85" stroke="hsl(228.5, 77.2%, 51.5%)" stroke-width="1.5"></path><path d="M1457.54 236.76L1568.25 376.4" stroke="hsl(228.5, 77.2%, 51.5%)" stroke-width="1.5"></path><path d="M1402.19 344.71L1402.19 344.71" stroke="hsl(228.5, 77.2%, 51.5%)" stroke-width="1.5"></path><path d="M1402.19 344.71L1568.25 376.4" stroke="hsl(228.5, 77.2%, 51.5%)" stroke-width="1.5"></path><path d="M1402.19 344.71L1238.76 391.66" stroke="hsl(228.5, 77.2%, 51.5%)" stroke-width="1.5"></path><path d="M1402.19 344.71L1406.03 533.82" stroke="hsl(228.5, 77.2%, 51.5%)" stroke-width="1.5"></path><path d="M1402.19 344.71L1300.02 524.28" stroke="hsl(228.5, 77.2%, 51.5%)" stroke-width="1.5"></path><path d="M1391.3 651.04L1391.3 651.04" stroke="hsl(228.5, 77.2%, 51.5%)" stroke-width="1.5"></path><path d="M1391.3 651.04L1300.02 524.28" stroke="hsl(228.5, 77.2%, 51.5%)" stroke-width="1.5"></path><path d="M1391.3 651.04L1609.19 502.07" stroke="hsl(228.5, 77.2%, 51.5%)" stroke-width="1.5"></path><path d="M1603.42 -64.33L1603.42 -64.33" stroke="hsl(228.5, 77.2%, 51.5%)" stroke-width="1.5"></path><path d="M1603.42 -64.33L1415.27 38.28" stroke="hsl(228.5, 77.2%, 51.5%)" stroke-width="1.5"></path><path d="M1603.42 -64.33L1607.12 200.85" stroke="hsl(228.5, 77.2%, 51.5%)" stroke-width="1.5"></path><path d="M1607.12 200.85L1607.12 200.85" stroke="hsl(228.5, 77.2%, 51.5%)" stroke-width="1.5"></path><path d="M1607.12 200.85L1568.25 376.4" stroke="hsl(228.5, 77.2%, 51.5%)" stroke-width="1.5"></path><path d="M1607.12 200.85L1402.19 344.71" stroke="hsl(228.5, 77.2%, 51.5%)" stroke-width="1.5"></path><path d="M1607.12 200.85L1415.27 38.28" stroke="hsl(228.5, 77.2%, 51.5%)" stroke-width="1.5"></path><path d="M1568.25 376.4L1568.25 376.4" stroke="hsl(228.5, 77.2%, 51.5%)" stroke-width="1.5"></path><path d="M1568.25 376.4L1609.19 502.07" stroke="hsl(228.5, 77.2%, 51.5%)" stroke-width="1.5"></path><path d="M1568.25 376.4L1406.03 533.82" stroke="hsl(228.5, 77.2%, 51.5%)" stroke-width="1.5"></path><path d="M1568.25 376.4L1550.84 85.47" stroke="hsl(228.5, 77.2%, 51.5%)" stroke-width="1.5"></path><path d="M1609.19 502.07L1609.19 502.07" stroke="hsl(228.5, 77.2%, 51.5%)" stroke-width="1.5"></path><path d="M1609.19 502.07L1406.03 533.82" stroke="hsl(228.5, 77.2%, 51.5%)" stroke-width="1.5"></path><path d="M1609.19 502.07L1402.19 344.71" stroke="hsl(228.5, 77.2%, 51.5%)" stroke-width="1.5"></path><circle r="25" cx="98.66" cy="512.55" fill="url(&quot;#SvgjsRadialGradient1001&quot;)"></circle><circle r="25" cx="659.37" cy="402.41" fill="url(&quot;#SvgjsRadialGradient1001&quot;)"></circle><circle r="25" cx="949.62" cy="504.18" fill="url(&quot;#SvgjsRadialGradient1001&quot;)"></circle><circle r="25" cx="1092.04" cy="557.02" fill="url(&quot;#SvgjsRadialGradient1001&quot;)"></circle><circle r="25" cx="1250.41" cy="96.81" fill="url(&quot;#SvgjsRadialGradient1001&quot;)"></circle><circle r="25" cx="1300.02" cy="524.28" fill="url(&quot;#SvgjsRadialGradient1001&quot;)"></circle><circle r="25" cx="1307.39" cy="650.96" fill="url(&quot;#SvgjsRadialGradient1001&quot;)"></circle><circle r="25" cx="1406.03" cy="533.82" fill="url(&quot;#SvgjsRadialGradient1001&quot;)"></circle><circle r="25" cx="1550.84" cy="85.47" fill="url(&quot;#SvgjsRadialGradient1001&quot;)"></circle><circle r="5" cx="-78.13" cy="501.26" fill="#8b9ad9"></circle><circle r="5" cx="-44.27" cy="644.35" fill="#8b9ad9"></circle><circle r="5" cx="112.04" cy="694.38" fill="#8b9ad9"></circle><circle r="5" cx="204.06" cy="547.2" fill="#8b9ad9"></circle><circle r="5" cx="244.56" cy="704.16" fill="#8b9ad9"></circle><circle r="5" cx="348.1" cy="532.83" fill="#8b9ad9"></circle><circle r="5" cx="392.87" cy="674.45" fill="#8b9ad9"></circle><circle r="5" cx="490.49" cy="559.37" fill="#8b9ad9"></circle><circle r="5" cx="550.17" cy="706.02" fill="#8b9ad9"></circle><circle r="5" cx="676.81" cy="504.99" fill="#8b9ad9"></circle><circle r="5" cx="678.78" cy="656.95" fill="#8b9ad9"></circle><circle r="5" cx="804.9" cy="352.03" fill="#8b9ad9"></circle><circle r="5" cx="790.65" cy="517.75" fill="#8b9ad9"></circle><circle r="5" cx="851.2" cy="650.49" fill="#8b9ad9"></circle><circle r="5" cx="977.87" cy="392.37" fill="#8b9ad9"></circle><circle r="5" cx="982.62" cy="642.98" fill="#8b9ad9"></circle><circle r="5" cx="1153.02" cy="215.2" fill="#8b9ad9"></circle><circle r="5" cx="1105.1" cy="375.53" fill="#8b9ad9"></circle><circle r="5" cx="1290.66" cy="-80.42" fill="#8b9ad9"></circle><circle r="5" cx="1276.99" cy="229.61" fill="#8b9ad9"></circle><circle r="5" cx="1238.76" cy="391.66" fill="#8b9ad9"></circle><circle r="5" cx="1438.33" cy="-107.22" fill="#8b9ad9"></circle><circle r="5" cx="1415.27" cy="38.28" fill="#8b9ad9"></circle><circle r="5" cx="1457.54" cy="236.76" fill="#8b9ad9"></circle><circle r="5" cx="1402.19" cy="344.71" fill="#8b9ad9"></circle><circle r="5" cx="1391.3" cy="651.04" fill="#8b9ad9"></circle><circle r="5" cx="1603.42" cy="-64.33" fill="#8b9ad9"></circle><circle r="5" cx="1607.12" cy="200.85" fill="#8b9ad9"></circle><circle r="5" cx="1568.25" cy="376.4" fill="#8b9ad9"></circle><circle r="5" cx="1609.19" cy="502.07" fill="#8b9ad9"></circle></g><defs><mask id="SvgjsMask1000"><rect width="1440" height="560" fill="#ffffff"></rect></mask><radialGradient id="SvgjsRadialGradient1001"><stop stop-color="#ffffff" offset="0.1"></stop><stop stop-color="#1735b3" offset="0.2"></stop><stop stop-color="rgba(23, 53, 179, 0)" offset="1"></stop></radialGradient></defs></svg>